# Blender v2.79 (sub 0) OBJ File: ''
# www.blender.org
mtllib schmidtsilberpfeileins.mtl
o group0.001
v 0.687500 0.062500 1.781250
v -0.687500 0.062500 1.781250
v -0.687500 -0.000000 1.781250
v 0.687500 -0.000000 1.781250
v -0.687500 0.062500 -0.093750
v 0.687500 0.062500 -0.093750
v 0.687500 0.000000 -0.093750
v -0.687500 0.000000 -0.093750
v 0.625000 0.937500 1.781250
v -0.625000 0.937500 1.781250
v -0.625000 0.062500 1.781250
v 0.625000 0.062500 1.781250
v -0.625000 0.937500 1.718750
v 0.625000 0.937500 1.718750
v 0.625000 0.062500 1.718750
v -0.625000 0.062500 1.718750
v -0.687500 0.937500 1.781250
v -0.687500 0.937500 -0.093750
v -0.625000 0.937500 -0.093750
v -0.625000 0.062500 -0.093750
v 0.687500 0.937500 1.781250
v 0.625000 0.937500 -0.093750
v 0.687500 0.937500 -0.093750
v 0.625000 0.062500 -0.093750
v 0.250000 0.437499 3.656250
v -0.250000 0.437499 3.656250
v -0.250000 -0.000001 3.468750
v 0.250000 -0.000001 3.468750
v -0.687500 0.437500 1.781250
v 0.687500 0.437500 1.781250
v 0.687500 0.312500 -0.093750
v -0.687500 0.312500 -0.093750
v -0.687500 0.312500 -1.031250
v 0.687500 0.312500 -1.031250
v 0.687500 0.000000 -1.031250
v -0.687500 0.000000 -1.031250
v 1.000000 0.031250 2.718750
v -1.000000 0.031250 2.718750
v -1.000000 -0.031250 2.718750
v 1.000000 -0.031250 2.718750
v -1.000000 0.031250 2.656250
v 1.000000 0.031250 2.656250
v 1.000000 -0.031250 2.656250
v -1.000000 -0.031250 2.656250
v 1.000000 0.031250 0.031250
v -1.000000 0.031250 0.031250
v -1.000000 -0.031250 0.031250
v 1.000000 -0.031250 0.031250
v -1.000000 0.031250 -0.031250
v 1.000000 0.031250 -0.031250
v 1.000000 -0.031250 -0.031250
v -1.000000 -0.031250 -0.031250
v -0.562500 0.250000 2.218750
v -0.687500 0.250000 2.218750
v -0.687500 0.062500 2.218750
v -0.562500 0.062500 2.218750
v -0.687500 0.250000 2.031250
v -0.562500 0.250000 2.031250
v -0.562500 0.062500 2.031250
v -0.687500 0.062500 2.031250
v 0.250000 0.749999 3.406250
v -0.250000 0.749999 3.406250
v -0.687500 0.187500 2.156250
v -0.750000 0.187500 2.156250
v -0.750000 0.125000 2.156250
v -0.687500 0.125000 2.156250
v -0.750000 0.187500 1.468750
v -0.687500 0.187500 1.468750
v -0.687500 0.125000 1.468750
v -0.750000 0.125000 1.468750
v -0.687500 0.437500 2.156250
v -0.750000 0.437500 2.156250
v -0.750000 0.375000 2.156250
v -0.687500 0.375000 2.156250
v -0.750000 0.437500 1.468750
v -0.687500 0.437500 1.468750
v -0.687500 0.375000 1.468750
v -0.750000 0.375000 1.468750
v -0.562500 0.500000 2.218750
v -0.687500 0.500000 2.218750
v -0.687500 0.312500 2.218750
v -0.562500 0.312500 2.218750
v -0.687500 0.500000 2.031250
v -0.562500 0.500000 2.031250
v -0.562500 0.312500 2.031250
v -0.687500 0.312500 2.031250
v 0.687500 0.625000 -0.093750
v -0.687500 0.625000 -0.093750
v -0.687500 0.625000 -0.718750
v 0.687500 0.625000 -0.718750
vt 0.036621 0.955078
vt 0.025879 0.955078
vt 0.025879 0.953125
vt 0.036621 0.953125
vt 0.011230 0.955078
vt 0.000488 0.955078
vt 0.000488 0.953125
vt 0.011230 0.953125
vt 0.025879 0.998047
vt 0.011230 0.998047
vt 0.040527 0.998047
vt 0.025879 0.998047
vt 0.025879 0.955078
vt 0.040527 0.955078
vt 0.051270 0.955078
vt 0.051270 0.953125
vt 0.075195 0.958984
vt 0.065430 0.958984
vt 0.065430 0.931641
vt 0.075195 0.931641
vt 0.064941 0.958984
vt 0.055176 0.958984
vt 0.055176 0.931641
vt 0.064941 0.931641
vt 0.065430 0.998047
vt 0.064941 0.998047
vt 0.065918 0.998047
vt 0.065430 0.998047
vt 0.065430 0.958984
vt 0.065918 0.958984
vt 0.075684 0.958984
vt 0.075684 0.931641
vt 0.109863 0.996094
vt 0.109375 0.996094
vt 0.109375 0.968750
vt 0.109863 0.968750
vt 0.094727 0.996094
vt 0.094238 0.996094
vt 0.094238 0.968750
vt 0.094727 0.968750
vt 0.109375 0.998047
vt 0.094727 0.998047
vt 0.124023 0.998047
vt 0.109375 0.998047
vt 0.109375 0.996094
vt 0.124023 0.996094
vt 0.124512 0.996094
vt 0.124512 0.968750
vt 0.141113 0.996094
vt 0.140625 0.996094
vt 0.140625 0.968750
vt 0.141113 0.968750
vt 0.125977 0.996094
vt 0.125488 0.996094
vt 0.125488 0.968750
vt 0.125977 0.968750
vt 0.140625 0.998047
vt 0.125977 0.998047
vt 0.155273 0.998047
vt 0.140625 0.998047
vt 0.140625 0.996094
vt 0.155273 0.996094
vt 0.155762 0.996094
vt 0.155762 0.968750
vt 0.185059 0.955078
vt 0.174316 0.955078
vt 0.174316 0.941406
vt 0.185059 0.941406
vt 0.159668 0.955078
vt 0.148926 0.955078
vt 0.148926 0.941406
vt 0.159668 0.941406
vt 0.174316 0.998047
vt 0.159668 0.998047
vt 0.188965 0.998047
vt 0.174316 0.998047
vt 0.174316 0.955078
vt 0.188965 0.955078
vt 0.199707 0.955078
vt 0.199707 0.941406
vt 0.232422 0.955078
vt 0.221680 0.955078
vt 0.221680 0.945312
vt 0.232422 0.945312
vt 0.214355 0.955078
vt 0.203613 0.955078
vt 0.203613 0.945312
vt 0.214355 0.945312
vt 0.221680 0.998047
vt 0.214355 0.998047
vt 0.229004 0.998047
vt 0.221680 0.998047
vt 0.221680 0.955078
vt 0.229004 0.955078
vt 0.239746 0.955078
vt 0.239746 0.945312
vt 0.418945 0.935547
vt 0.403320 0.935547
vt 0.403320 0.933594
vt 0.418945 0.933594
vt 0.402832 0.935547
vt 0.387207 0.935547
vt 0.387207 0.933594
vt 0.402832 0.933594
vt 0.403320 0.998047
vt 0.402832 0.998047
vt 0.403809 0.998047
vt 0.403320 0.998047
vt 0.403320 0.935547
vt 0.403809 0.935547
vt 0.419434 0.935547
vt 0.419434 0.933594
vt 0.454102 0.935547
vt 0.438477 0.935547
vt 0.438477 0.933594
vt 0.454102 0.933594
vt 0.437988 0.935547
vt 0.422363 0.935547
vt 0.422363 0.933594
vt 0.437988 0.933594
vt 0.438477 0.998047
vt 0.437988 0.998047
vt 0.438965 0.998047
vt 0.438477 0.998047
vt 0.438477 0.935547
vt 0.438965 0.935547
vt 0.454590 0.935547
vt 0.454590 0.933594
vt 0.062500 0.994141
vt 0.061523 0.994141
vt 0.061523 0.988281
vt 0.062500 0.988281
vt 0.060059 0.994141
vt 0.059082 0.994141
vt 0.059082 0.988281
vt 0.060059 0.988281
vt 0.061523 0.998047
vt 0.060059 0.998047
vt 0.062988 0.998047
vt 0.061523 0.998047
vt 0.061523 0.994141
vt 0.062988 0.994141
vt 0.063965 0.994141
vt 0.063965 0.988281
vt 0.478027 0.955078
vt 0.467285 0.955078
vt 0.467285 0.939453
vt 0.478027 0.939453
vt 0.452637 0.955078
vt 0.441895 0.955078
vt 0.441895 0.939453
vt 0.452637 0.939453
vt 0.467285 0.998047
vt 0.452637 0.998047
vt 0.492676 0.955078
vt 0.492676 0.939453
vt 0.413086 0.996094
vt 0.412598 0.996094
vt 0.412598 0.994141
vt 0.413086 0.994141
vt 0.407227 0.996094
vt 0.406738 0.996094
vt 0.406738 0.994141
vt 0.407227 0.994141
vt 0.412598 0.998047
vt 0.407227 0.998047
vt 0.417969 0.998047
vt 0.412598 0.998047
vt 0.412598 0.996094
vt 0.417969 0.996094
vt 0.418457 0.996094
vt 0.418457 0.994141
vt 0.428711 0.996094
vt 0.428223 0.996094
vt 0.428223 0.994141
vt 0.428711 0.994141
vt 0.422852 0.996094
vt 0.422363 0.996094
vt 0.422363 0.994141
vt 0.422852 0.994141
vt 0.428223 0.998047
vt 0.422852 0.998047
vt 0.433594 0.998047
vt 0.428223 0.998047
vt 0.428223 0.996094
vt 0.433594 0.996094
vt 0.434082 0.996094
vt 0.434082 0.994141
vt 0.078125 0.994141
vt 0.077148 0.994141
vt 0.077148 0.988281
vt 0.078125 0.988281
vt 0.075684 0.994141
vt 0.074707 0.994141
vt 0.074707 0.988281
vt 0.075684 0.988281
vt 0.077148 0.998047
vt 0.075684 0.998047
vt 0.078613 0.998047
vt 0.077148 0.998047
vt 0.077148 0.994141
vt 0.078613 0.994141
vt 0.079590 0.994141
vt 0.079590 0.988281
vt 0.525391 0.955078
vt 0.514648 0.955078
vt 0.514648 0.945312
vt 0.525391 0.945312
vt 0.507324 0.955078
vt 0.496582 0.955078
vt 0.496582 0.945312
vt 0.507324 0.945312
vt 0.514648 0.998047
vt 0.507324 0.998047
vt 0.532715 0.955078
vt 0.532715 0.945312
vt 0.559570 0.955078
vt 0.548828 0.955078
vt 0.548828 0.945312
vt 0.559570 0.945312
vt 0.546387 0.955078
vt 0.535645 0.955078
vt 0.535645 0.945312
vt 0.546387 0.945312
vt 0.562012 0.945312
vn 0.0000 0.0000 1.0000
vn 0.0000 0.0000 -1.0000
vn 0.0000 1.0000 0.0000
vn 0.0000 -1.0000 -0.0000
vn -1.0000 0.0000 0.0000
vn 1.0000 0.0000 0.0000
vn 0.0000 -0.3939 0.9191
vn -0.9699 -0.0510 0.2382
vn 0.9699 -0.0510 0.2382
vn 0.0000 0.6247 0.7809
vn 0.0000 0.9934 0.1146
vn -0.9664 0.0756 0.2457
vn 0.9664 0.0756 0.2457
vn 0.0000 0.7071 -0.7071
vn 0.0000 0.8944 -0.4472
usemtl None
s 1
f 1/1/1 2/2/1 3/3/1 4/4/1
f 5/5/2 6/6/2 7/7/2 8/8/2
f 1/9/3 6/10/3 5/5/3 2/2/3
f 3/11/4 8/12/4 7/13/4 4/14/4
f 2/2/5 5/5/5 8/8/5 3/3/5
f 6/15/6 1/1/6 4/4/6 7/16/6
f 9/17/1 10/18/1 11/19/1 12/20/1
f 13/21/2 14/22/2 15/23/2 16/24/2
f 9/25/3 14/26/3 13/21/3 10/18/3
f 11/27/4 16/28/4 15/29/4 12/30/4
f 10/18/5 13/21/5 16/24/5 11/19/5
f 14/31/6 9/17/6 12/20/6 15/32/6
f 10/33/1 17/34/1 2/35/1 11/36/1
f 18/37/2 19/38/2 20/39/2 5/40/2
f 10/41/3 19/42/3 18/37/3 17/34/3
f 2/43/4 5/44/4 20/45/4 11/46/4
f 17/34/5 18/37/5 5/40/5 2/35/5
f 19/47/6 10/33/6 11/36/6 20/48/6
f 21/49/1 9/50/1 12/51/1 1/52/1
f 22/53/2 23/54/2 6/55/2 24/56/2
f 21/57/3 23/58/3 22/53/3 9/50/3
f 12/59/4 24/60/4 6/61/4 1/62/4
f 9/50/5 22/53/5 24/56/5 12/51/5
f 23/63/6 21/49/6 1/52/6 6/64/6
f 25/65/7 26/66/7 27/67/7 28/68/7
f 29/69/2 30/70/2 4/71/2 3/72/2
f 25/73/3 30/74/3 29/69/3 26/66/3
f 27/75/4 3/76/4 4/77/4 28/78/4
f 26/66/8 29/69/8 3/72/8 27/67/8
f 30/79/9 25/65/9 28/68/9 4/80/9
f 31/81/1 32/82/1 8/83/1 7/84/1
f 33/85/2 34/86/2 35/87/2 36/88/2
f 31/89/3 34/90/3 33/85/3 32/82/3
f 8/91/4 36/92/4 35/93/4 7/94/4
f 32/82/5 33/85/5 36/88/5 8/83/5
f 34/95/6 31/81/6 7/84/6 35/96/6
f 37/97/1 38/98/1 39/99/1 40/100/1
f 41/101/2 42/102/2 43/103/2 44/104/2
f 37/105/3 42/106/3 41/101/3 38/98/3
f 39/107/4 44/108/4 43/109/4 40/110/4
f 38/98/5 41/101/5 44/104/5 39/99/5
f 42/111/6 37/97/6 40/100/6 43/112/6
f 45/113/1 46/114/1 47/115/1 48/116/1
f 49/117/2 50/118/2 51/119/2 52/120/2
f 45/121/3 50/122/3 49/117/3 46/114/3
f 47/123/4 52/124/4 51/125/4 48/126/4
f 46/114/5 49/117/5 52/120/5 47/115/5
f 50/127/6 45/113/6 48/116/6 51/128/6
f 53/129/1 54/130/1 55/131/1 56/132/1
f 57/133/2 58/134/2 59/135/2 60/136/2
f 53/137/3 58/138/3 57/133/3 54/130/3
f 55/139/4 60/140/4 59/141/4 56/142/4
f 54/130/5 57/133/5 60/136/5 55/131/5
f 58/143/6 53/129/6 56/132/6 59/144/6
f 61/145/10 62/146/10 26/147/10 25/148/10
f 17/149/2 21/150/2 30/151/2 29/152/2
f 61/153/11 21/154/11 17/149/11 62/146/11
f 62/146/12 17/149/12 29/152/12 26/147/12
f 21/155/13 61/145/13 25/148/13 30/156/13
f 63/157/1 64/158/1 65/159/1 66/160/1
f 67/161/2 68/162/2 69/163/2 70/164/2
f 63/165/3 68/166/3 67/161/3 64/158/3
f 65/167/4 70/168/4 69/169/4 66/170/4
f 64/158/5 67/161/5 70/164/5 65/159/5
f 68/171/6 63/157/6 66/160/6 69/172/6
f 71/173/1 72/174/1 73/175/1 74/176/1
f 75/177/2 76/178/2 77/179/2 78/180/2
f 71/181/3 76/182/3 75/177/3 72/174/3
f 73/183/4 78/184/4 77/185/4 74/186/4
f 72/174/5 75/177/5 78/180/5 73/175/5
f 76/187/6 71/173/6 74/176/6 77/188/6
f 79/189/1 80/190/1 81/191/1 82/192/1
f 83/193/2 84/194/2 85/195/2 86/196/2
f 79/197/3 84/198/3 83/193/3 80/190/3
f 81/199/4 86/200/4 85/201/4 82/202/4
f 80/190/5 83/193/5 86/196/5 81/191/5
f 84/203/6 79/189/6 82/192/6 85/204/6
f 87/205/1 88/206/1 32/207/1 31/208/1
f 89/209/14 90/210/14 34/211/14 33/212/14
f 87/213/3 90/214/3 89/209/3 88/206/3
f 88/206/5 89/209/5 33/212/5 32/207/5
f 90/215/6 87/205/6 31/208/6 34/216/6
f 23/217/1 18/218/1 88/219/1 87/220/1
f 18/221/15 23/222/15 90/223/15 89/224/15
f 18/221/5 89/224/5 88/219/5
f 23/217/6 87/220/6 90/225/6
o Gearshift
v -0.312500 0.840874 1.024438
v -0.375000 0.840874 1.024438
v -0.375000 0.061244 1.421680
v -0.312500 0.061244 1.421680
v -0.375000 0.812500 0.968750
v -0.312500 0.812500 0.968750
v -0.312500 0.032869 1.365992
v -0.375000 0.032869 1.365992
vt 0.009766 0.996094
vt 0.009277 0.996094
vt 0.009277 0.968750
vt 0.009766 0.968750
vt 0.008789 0.996094
vt 0.008301 0.996094
vt 0.008301 0.968750
vt 0.008789 0.968750
vt 0.009277 0.998047
vt 0.008789 0.998047
vt 0.009766 0.998047
vt 0.009277 0.998047
vt 0.009277 0.996094
vt 0.009766 0.996094
vt 0.010254 0.996094
vt 0.010254 0.968750
vn 0.0000 0.4540 0.8910
vn 0.0000 -0.4540 -0.8910
vn 0.0000 0.8910 -0.4540
vn 0.0000 -0.8910 0.4540
vn -1.0000 0.0000 0.0000
vn 1.0000 0.0000 0.0000
usemtl None
s 1
f 91/226/16 92/227/16 93/228/16 94/229/16
f 95/230/17 96/231/17 97/232/17 98/233/17
f 91/234/18 96/235/18 95/230/18 92/227/18
f 93/236/19 98/237/19 97/238/19 94/239/19
f 92/227/20 95/230/20 98/233/20 93/228/20
f 96/240/21 91/226/21 94/229/21 97/241/21
o SteeringWheel
v 0.062500 0.812500 1.718750
v 0.000000 0.812500 1.718750
v 0.000000 0.750000 1.718750
v 0.062500 0.750000 1.718750
v 0.000000 0.812500 1.406250
v 0.062500 0.812500 1.406250
v 0.062500 0.750000 1.406250
v 0.000000 0.750000 1.406250
v 0.250000 1.000000 1.406250
v -0.187500 1.000000 1.406250
v -0.187500 0.562500 1.406250
v 0.250000 0.562500 1.406250
v -0.187500 1.000000 1.343750
v 0.250000 1.000000 1.343750
v 0.250000 0.562500 1.343750
v -0.187500 0.562500 1.343750
vt 0.003906 0.996094
vt 0.003418 0.996094
vt 0.003418 0.994141
vt 0.003906 0.994141
vt 0.000977 0.996094
vt 0.000488 0.996094
vt 0.000488 0.994141
vt 0.000977 0.994141
vt 0.003418 0.998047
vt 0.000977 0.998047
vt 0.005859 0.998047
vt 0.003418 0.998047
vt 0.003418 0.996094
vt 0.005859 0.996094
vt 0.006348 0.996094
vt 0.006348 0.994141
vt 0.074219 0.984375
vt 0.070801 0.984375
vt 0.070801 0.970703
vt 0.074219 0.970703
vt 0.070312 0.984375
vt 0.066895 0.984375
vt 0.066895 0.970703
vt 0.070312 0.970703
vt 0.070801 0.998047
vt 0.070312 0.998047
vt 0.071289 0.998047
vt 0.070801 0.998047
vt 0.070801 0.984375
vt 0.071289 0.984375
vt 0.074707 0.984375
vt 0.074707 0.970703
vn 0.0000 0.0000 1.0000
vn 0.0000 0.0000 -1.0000
vn 0.0000 1.0000 0.0000
vn 0.0000 -1.0000 -0.0000
vn -1.0000 0.0000 0.0000
vn 1.0000 0.0000 0.0000
usemtl None
s 1
f 99/242/22 100/243/22 101/244/22 102/245/22
f 103/246/23 104/247/23 105/248/23 106/249/23
f 99/250/24 104/251/24 103/246/24 100/243/24
f 101/252/25 106/253/25 105/254/25 102/255/25
f 100/243/26 103/246/26 106/249/26 101/244/26
f 104/256/27 99/242/27 102/245/27 105/257/27
f 107/258/22 108/259/22 109/260/22 110/261/22
f 111/262/23 112/263/23 113/264/23 114/265/23
f 107/266/24 112/267/24 111/262/24 108/259/24
f 109/268/25 114/269/25 113/270/25 110/271/25
f 108/259/26 111/262/26 114/265/26 109/260/26
f 112/272/27 107/258/27 110/261/27 113/273/27
