# Blender v2.78 (sub 0) OBJ File: ''
# www.blender.org
mtllib ModelgunLandship.mtl
o Model[2]
v -0.093750 0.093750 0.281250
v -0.031250 0.093750 0.468750
v 0.031250 0.093750 0.468750
v 0.093750 0.093750 0.281250
v 0.093750 0.031250 0.281250
v 0.093750 0.031250 0.468750
v -0.093750 0.031250 0.468750
v -0.093750 0.031250 0.281250
v -0.093750 0.031250 0.281250
v -0.093750 0.031250 0.468750
v 0.093750 0.031250 0.468750
v 0.093750 0.031250 0.281250
v 0.093750 -0.031250 0.281250
v 0.093750 -0.031250 0.468750
v -0.093750 -0.031250 0.468750
v -0.093750 -0.031250 0.281250
v -0.093750 -0.031250 0.281250
v -0.093750 -0.031250 0.468750
v 0.093750 -0.031250 0.468750
v 0.093750 -0.031250 0.281250
v 0.093750 -0.093750 0.281250
v 0.031250 -0.093750 0.468750
v -0.031250 -0.093750 0.468750
v -0.093750 -0.093750 0.281250
v -0.093750 0.031250 0.468750
v -0.093750 0.031250 0.781250
v 0.093750 0.031250 0.781250
v 0.093750 0.031250 0.468750
v 0.093750 -0.031250 0.468750
v 0.093750 -0.031250 0.781250
v -0.093750 -0.031250 0.781250
v -0.093750 -0.031250 0.468750
v -0.031250 0.093750 0.468750
v -0.031250 0.093750 0.781250
v 0.031250 0.093750 0.781250
v 0.031250 0.093750 0.468750
v 0.093750 0.031250 0.468750
v 0.093750 0.031250 0.781250
v -0.093750 0.031250 0.781250
v -0.093750 0.031250 0.468750
v -0.093750 -0.031250 0.468750
v -0.093750 -0.031250 0.781250
v 0.093750 -0.031250 0.781250
v 0.093750 -0.031250 0.468750
v 0.031250 -0.093750 0.468750
v 0.031250 -0.093750 0.781250
v -0.031250 -0.093750 0.781250
v -0.031250 -0.093750 0.468750
v -0.093750 0.031250 0.781250
v -0.093750 0.031250 1.093750
v 0.093750 0.031250 1.093750
v 0.093750 0.031250 0.781250
v 0.093750 -0.031250 0.781250
v 0.093750 -0.031250 1.093750
v -0.093750 -0.031250 1.093750
v -0.093750 -0.031250 0.781250
v -0.031250 0.093750 0.781250
v -0.031250 0.093750 1.093750
v 0.031250 0.093750 1.093750
v 0.031250 0.093750 0.781250
v 0.093750 0.031250 0.781250
v 0.093750 0.031250 1.093750
v -0.093750 0.031250 1.093750
v -0.093750 0.031250 0.781250
v -0.093750 -0.031250 0.781250
v -0.093750 -0.031250 1.093750
v 0.093750 -0.031250 1.093750
v 0.093750 -0.031250 0.781250
v 0.031250 -0.093750 0.781250
v 0.031250 -0.093750 1.093750
v -0.031250 -0.093750 1.093750
v -0.031250 -0.093750 0.781250
vt 1.1445 0.9922
vt 1.1475 0.9922
vt 1.1475 0.9980
vt 1.1445 0.9980
vt 1.1475 0.9922
vt 1.1504 0.9922
vt 1.1504 0.9980
vt 1.1475 0.9980
vt 1.1445 0.9902
vt 1.1475 0.9902
vt 1.1533 0.9922
vt 1.1504 0.9922
vt 1.1504 0.9902
vt 1.1533 0.9902
vt 1.1416 0.9922
vt 1.1416 0.9902
vt 1.1602 0.9922
vt 1.1631 0.9922
vt 1.1631 0.9980
vt 1.1602 0.9980
vt 1.1631 0.9922
vt 1.1660 0.9922
vt 1.1660 0.9980
vt 1.1631 0.9980
vt 1.1602 0.9902
vt 1.1631 0.9902
vt 1.1689 0.9922
vt 1.1660 0.9922
vt 1.1660 0.9902
vt 1.1689 0.9902
vt 1.1572 0.9922
vt 1.1572 0.9902
vt 1.1758 0.9922
vt 1.1787 0.9922
vt 1.1787 0.9980
vt 1.1758 0.9980
vt 1.1787 0.9922
vt 1.1816 0.9922
vt 1.1816 0.9980
vt 1.1787 0.9980
vt 1.1758 0.9902
vt 1.1787 0.9902
vt 1.1846 0.9922
vt 1.1816 0.9922
vt 1.1816 0.9902
vt 1.1846 0.9902
vt 1.1729 0.9922
vt 1.1729 0.9902
vt 1.1914 0.9922
vt 1.1963 0.9922
vt 1.1963 0.9980
vt 1.1914 0.9980
vt 1.1963 0.9922
vt 1.2012 0.9922
vt 1.2012 0.9980
vt 1.1963 0.9980
vt 1.1914 0.9902
vt 1.1963 0.9902
vt 1.2041 0.9922
vt 1.1992 0.9922
vt 1.1992 0.9902
vt 1.2041 0.9902
vt 1.1885 0.9922
vt 1.1885 0.9902
vt 1.2148 0.9922
vt 1.2197 0.9922
vt 1.2197 0.9980
vt 1.2148 0.9980
vt 1.2197 0.9922
vt 1.2246 0.9922
vt 1.2246 0.9980
vt 1.2197 0.9980
vt 1.2148 0.9902
vt 1.2197 0.9902
vt 1.2275 0.9922
vt 1.2227 0.9922
vt 1.2227 0.9902
vt 1.2275 0.9902
vt 1.2119 0.9922
vt 1.2119 0.9902
vt 1.2383 0.9922
vt 1.2432 0.9922
vt 1.2432 0.9980
vt 1.2383 0.9980
vt 1.2432 0.9922
vt 1.2480 0.9922
vt 1.2480 0.9980
vt 1.2432 0.9980
vt 1.2383 0.9902
vt 1.2432 0.9902
vt 1.2510 0.9922
vt 1.2461 0.9922
vt 1.2461 0.9902
vt 1.2510 0.9902
vt 1.2354 0.9922
vt 1.2354 0.9902
vt 1.2617 0.9922
vt 1.2666 0.9922
vt 1.2666 0.9980
vt 1.2617 0.9980
vt 1.2666 0.9922
vt 1.2715 0.9922
vt 1.2715 0.9980
vt 1.2666 0.9980
vt 1.2617 0.9902
vt 1.2666 0.9902
vt 1.2744 0.9922
vt 1.2695 0.9922
vt 1.2695 0.9902
vt 1.2744 0.9902
vt 1.2588 0.9922
vt 1.2588 0.9902
vt 1.2852 0.9922
vt 1.2900 0.9922
vt 1.2900 0.9980
vt 1.2852 0.9980
vt 1.2900 0.9922
vt 1.2949 0.9922
vt 1.2949 0.9980
vt 1.2900 0.9980
vt 1.2852 0.9902
vt 1.2900 0.9902
vt 1.2979 0.9922
vt 1.2930 0.9922
vt 1.2930 0.9902
vt 1.2979 0.9902
vt 1.2822 0.9922
vt 1.2822 0.9902
vt 1.3086 0.9922
vt 1.3135 0.9922
vt 1.3135 0.9980
vt 1.3086 0.9980
vt 1.3135 0.9922
vt 1.3184 0.9922
vt 1.3184 0.9980
vt 1.3135 0.9980
vt 1.3086 0.9902
vt 1.3135 0.9902
vt 1.3213 0.9922
vt 1.3164 0.9922
vt 1.3164 0.9902
vt 1.3213 0.9902
vt 1.3057 0.9922
vt 1.3057 0.9902
vn -0.0000 1.0000 -0.0000
vn 0.0000 -1.0000 -0.0000
vn -0.8847 0.4423 0.1474
vn 0.8847 0.4423 0.1474
vn -0.0000 0.0000 1.0000
vn 0.0000 0.0000 -1.0000
vn -1.0000 0.0000 0.0000
vn 1.0000 0.0000 -0.0000
vn -0.8847 -0.4423 0.1474
vn 0.8847 -0.4423 0.1474
vn -0.7071 0.7071 0.0000
vn 0.7071 0.7071 -0.0000
vn -0.7071 -0.7071 0.0000
vn 0.7071 -0.7071 -0.0000
usemtl ModelMaterial
s off
f 1/1/1 2/2/1 3/3/1 4/4/1
f 5/5/2 6/6/2 7/7/2 8/8/2
f 2/2/3 1/1/3 8/9/3 7/10/3
f 4/11/4 3/12/4 6/13/4 5/14/4
f 3/12/5 2/2/5 7/10/5 6/13/5
f 1/1/6 4/15/6 5/16/6 8/9/6
f 9/17/1 10/18/1 11/19/1 12/20/1
f 13/21/2 14/22/2 15/23/2 16/24/2
f 10/18/7 9/17/7 16/25/7 15/26/7
f 12/27/8 11/28/8 14/29/8 13/30/8
f 11/28/5 10/18/5 15/26/5 14/29/5
f 9/17/6 12/31/6 13/32/6 16/25/6
f 17/33/1 18/34/1 19/35/1 20/36/1
f 21/37/2 22/38/2 23/39/2 24/40/2
f 18/34/9 17/33/9 24/41/9 23/42/9
f 20/43/10 19/44/10 22/45/10 21/46/10
f 19/44/5 18/34/5 23/42/5 22/45/5
f 17/33/6 20/47/6 21/48/6 24/41/6
f 25/49/1 26/50/1 27/51/1 28/52/1
f 29/53/2 30/54/2 31/55/2 32/56/2
f 26/50/7 25/49/7 32/57/7 31/58/7
f 28/59/8 27/60/8 30/61/8 29/62/8
f 27/60/5 26/50/5 31/58/5 30/61/5
f 25/49/6 28/63/6 29/64/6 32/57/6
f 33/65/1 34/66/1 35/67/1 36/68/1
f 37/69/2 38/70/2 39/71/2 40/72/2
f 34/66/11 33/65/11 40/73/11 39/74/11
f 36/75/12 35/76/12 38/77/12 37/78/12
f 35/76/5 34/66/5 39/74/5 38/77/5
f 33/65/6 36/79/6 37/80/6 40/73/6
f 41/81/1 42/82/1 43/83/1 44/84/1
f 45/85/2 46/86/2 47/87/2 48/88/2
f 42/82/13 41/81/13 48/89/13 47/90/13
f 44/91/14 43/92/14 46/93/14 45/94/14
f 43/92/5 42/82/5 47/90/5 46/93/5
f 41/81/6 44/95/6 45/96/6 48/89/6
f 49/97/1 50/98/1 51/99/1 52/100/1
f 53/101/2 54/102/2 55/103/2 56/104/2
f 50/98/7 49/97/7 56/105/7 55/106/7
f 52/107/8 51/108/8 54/109/8 53/110/8
f 51/108/5 50/98/5 55/106/5 54/109/5
f 49/97/6 52/111/6 53/112/6 56/105/6
f 57/113/1 58/114/1 59/115/1 60/116/1
f 61/117/2 62/118/2 63/119/2 64/120/2
f 58/114/11 57/113/11 64/121/11 63/122/11
f 60/123/12 59/124/12 62/125/12 61/126/12
f 59/124/5 58/114/5 63/122/5 62/125/5
f 57/113/6 60/127/6 61/128/6 64/121/6
f 65/129/1 66/130/1 67/131/1 68/132/1
f 69/133/2 70/134/2 71/135/2 72/136/2
f 66/130/13 65/129/13 72/137/13 71/138/13
f 68/139/14 67/140/14 70/141/14 69/142/14
f 67/140/5 66/130/5 71/138/5 70/141/5
f 65/129/6 68/143/6 69/144/6 72/137/6
o Model[0]
v 0.093750 0.218750 0.093750
v 0.093750 0.218750 0.281250
v 0.281250 0.218750 0.093750
v 0.281250 0.218750 0.093750
v 0.281250 -0.406250 0.093750
v 0.281250 -0.406250 0.093750
v 0.093750 -0.406250 0.281250
v 0.093750 -0.406250 0.093750
v 0.093750 0.218750 -0.093750
v 0.093750 0.218750 0.093750
v 0.281250 0.218750 0.093750
v 0.281250 0.218750 -0.093750
v 0.281250 -0.406250 -0.093750
v 0.281250 -0.406250 0.093750
v 0.093750 -0.406250 0.093750
v 0.093750 -0.406250 -0.093750
v -0.281250 0.218750 0.093750
v -0.281250 0.218750 0.093750
v -0.093750 0.218750 0.281250
v -0.093750 0.218750 0.093750
v -0.093750 -0.406250 0.093750
v -0.093750 -0.406250 0.281250
v -0.281250 -0.406250 0.093750
v -0.281250 -0.406250 0.093750
v -0.281250 0.218750 -0.093750
v -0.281250 0.218750 0.093750
v -0.093750 0.218750 0.093750
v -0.093750 0.218750 -0.093750
v -0.093750 -0.406250 -0.093750
v -0.093750 -0.406250 0.093750
v -0.281250 -0.406250 0.093750
v -0.281250 -0.406250 -0.093750
v -0.093750 0.218750 0.093750
v -0.093750 0.218750 0.281250
v 0.093750 0.218750 0.281250
v 0.093750 0.218750 0.093750
v 0.093750 -0.406250 0.093750
v 0.093750 -0.406250 0.281250
v -0.093750 -0.406250 0.281250
v -0.093750 -0.406250 0.093750
v -0.093750 0.531250 -0.093750
v -0.093750 0.531250 0.093750
v 0.093750 0.531250 0.093750
v 0.093750 0.531250 -0.093750
v 0.093750 -0.406250 -0.093750
v 0.093750 -0.406250 0.093750
v -0.093750 -0.406250 0.093750
v -0.093750 -0.406250 -0.093750
v -0.281250 0.218750 -0.093750
v -0.281250 0.218750 -0.093750
v -0.093750 0.218750 -0.093750
v -0.093750 0.218750 -0.281250
v -0.093750 -0.406250 -0.281250
v -0.093750 -0.406250 -0.093750
v -0.281250 -0.406250 -0.093750
v -0.281250 -0.406250 -0.093750
v -0.093750 0.218750 -0.281250
v -0.093750 0.218750 -0.093750
v 0.093750 0.218750 -0.093750
v 0.093750 0.218750 -0.281250
v 0.093750 -0.406250 -0.281250
v 0.093750 -0.406250 -0.093750
v -0.093750 -0.406250 -0.093750
v -0.093750 -0.406250 -0.281250
v 0.093750 0.218750 -0.281250
v 0.093750 0.218750 -0.093750
v 0.281250 0.218750 -0.093750
v 0.281250 0.218750 -0.093750
v 0.281250 -0.406250 -0.093750
v 0.281250 -0.406250 -0.093750
v 0.093750 -0.406250 -0.093750
v 0.093750 -0.406250 -0.281250
vt 1.0039 0.9922
vt 1.0068 0.9922
vt 1.0068 0.9980
vt 1.0039 0.9980
vt 1.0068 0.9922
vt 1.0098 0.9922
vt 1.0098 0.9980
vt 1.0068 0.9980
vt 1.0039 0.9727
vt 1.0068 0.9727
vt 1.0127 0.9922
vt 1.0098 0.9922
vt 1.0098 0.9727
vt 1.0127 0.9727
vt 1.0010 0.9922
vt 1.0010 0.9727
vt 1.0195 0.9922
vt 1.0225 0.9922
vt 1.0225 0.9980
vt 1.0195 0.9980
vt 1.0225 0.9922
vt 1.0254 0.9922
vt 1.0254 0.9980
vt 1.0225 0.9980
vt 1.0195 0.9727
vt 1.0225 0.9727
vt 1.0283 0.9922
vt 1.0254 0.9922
vt 1.0254 0.9727
vt 1.0283 0.9727
vt 1.0166 0.9922
vt 1.0166 0.9727
vt 1.0352 0.9922
vt 1.0381 0.9922
vt 1.0381 0.9980
vt 1.0352 0.9980
vt 1.0381 0.9922
vt 1.0410 0.9922
vt 1.0410 0.9980
vt 1.0381 0.9980
vt 1.0352 0.9727
vt 1.0381 0.9727
vt 1.0439 0.9922
vt 1.0410 0.9922
vt 1.0410 0.9727
vt 1.0439 0.9727
vt 1.0322 0.9922
vt 1.0322 0.9727
vt 1.0508 0.9922
vt 1.0537 0.9922
vt 1.0537 0.9980
vt 1.0508 0.9980
vt 1.0537 0.9922
vt 1.0566 0.9922
vt 1.0566 0.9980
vt 1.0537 0.9980
vt 1.0508 0.9727
vt 1.0537 0.9727
vt 1.0596 0.9922
vt 1.0566 0.9922
vt 1.0566 0.9727
vt 1.0596 0.9727
vt 1.0479 0.9922
vt 1.0479 0.9727
vt 1.0664 0.9922
vt 1.0693 0.9922
vt 1.0693 0.9980
vt 1.0664 0.9980
vt 1.0693 0.9922
vt 1.0723 0.9922
vt 1.0723 0.9980
vt 1.0693 0.9980
vt 1.0664 0.9727
vt 1.0693 0.9727
vt 1.0752 0.9922
vt 1.0723 0.9922
vt 1.0723 0.9727
vt 1.0752 0.9727
vt 1.0635 0.9922
vt 1.0635 0.9727
vt 1.0820 0.9922
vt 1.0850 0.9922
vt 1.0850 0.9980
vt 1.0820 0.9980
vt 1.0850 0.9922
vt 1.0879 0.9922
vt 1.0879 0.9980
vt 1.0850 0.9980
vt 1.0820 0.9629
vt 1.0850 0.9629
vt 1.0908 0.9922
vt 1.0879 0.9922
vt 1.0879 0.9629
vt 1.0908 0.9629
vt 1.0791 0.9922
vt 1.0791 0.9629
vt 1.0977 0.9922
vt 1.1006 0.9922
vt 1.1006 0.9980
vt 1.0977 0.9980
vt 1.1006 0.9922
vt 1.1035 0.9922
vt 1.1035 0.9980
vt 1.1006 0.9980
vt 1.0977 0.9727
vt 1.1006 0.9727
vt 1.1064 0.9922
vt 1.1035 0.9922
vt 1.1035 0.9727
vt 1.1064 0.9727
vt 1.0947 0.9922
vt 1.0947 0.9727
vt 1.1133 0.9922
vt 1.1162 0.9922
vt 1.1162 0.9980
vt 1.1133 0.9980
vt 1.1162 0.9922
vt 1.1191 0.9922
vt 1.1191 0.9980
vt 1.1162 0.9980
vt 1.1133 0.9727
vt 1.1162 0.9727
vt 1.1221 0.9922
vt 1.1191 0.9922
vt 1.1191 0.9727
vt 1.1221 0.9727
vt 1.1104 0.9922
vt 1.1104 0.9727
vt 1.1289 0.9922
vt 1.1318 0.9922
vt 1.1318 0.9980
vt 1.1289 0.9980
vt 1.1318 0.9922
vt 1.1348 0.9922
vt 1.1348 0.9980
vt 1.1318 0.9980
vt 1.1289 0.9727
vt 1.1318 0.9727
vt 1.1377 0.9922
vt 1.1348 0.9922
vt 1.1348 0.9727
vt 1.1377 0.9727
vt 1.1260 0.9922
vt 1.1260 0.9727
vn -0.0000 1.0000 0.0000
vn 0.0000 -1.0000 -0.0000
vn -1.0000 -0.0000 0.0000
vn 0.0000 0.0000 1.0000
vn 0.7071 0.0000 0.7071
vn -0.0000 -0.0000 -1.0000
vn 1.0000 0.0000 -0.0000
vn -0.7071 -0.0000 0.7071
vn -0.7071 -0.0000 -0.7071
vn 0.7071 0.0000 -0.7071
usemtl ModelMaterial
s off
f 73/145/15 74/146/15 75/147/15 76/148/15
f 77/149/16 78/150/16 79/151/16 80/152/16
f 74/146/17 73/145/17 80/153/17 79/154/17
f 76/155/18 75/156/18 78/157/18 77/158/18
f 75/156/19 74/146/19 79/154/19 78/157/19
f 73/145/20 76/159/20 77/160/20 80/153/20
f 81/161/15 82/162/15 83/163/15 84/164/15
f 85/165/16 86/166/16 87/167/16 88/168/16
f 82/162/17 81/161/17 88/169/17 87/170/17
f 84/171/21 83/172/21 86/173/21 85/174/21
f 83/172/18 82/162/18 87/170/18 86/173/18
f 81/161/20 84/175/20 85/176/20 88/169/20
f 89/177/15 90/178/15 91/179/15 92/180/15
f 93/181/16 94/182/16 95/183/16 96/184/16
f 90/178/18 89/177/18 96/185/18 95/186/18
f 92/187/21 91/188/21 94/189/21 93/190/21
f 91/188/22 90/178/22 95/186/22 94/189/22
f 89/177/20 92/191/20 93/192/20 96/185/20
f 97/193/15 98/194/15 99/195/15 100/196/15
f 101/197/16 102/198/16 103/199/16 104/200/16
f 98/194/17 97/193/17 104/201/17 103/202/17
f 100/203/21 99/204/21 102/205/21 101/206/21
f 99/204/18 98/194/18 103/202/18 102/205/18
f 97/193/20 100/207/20 101/208/20 104/201/20
f 105/209/15 106/210/15 107/211/15 108/212/15
f 109/213/16 110/214/16 111/215/16 112/216/16
f 106/210/17 105/209/17 112/217/17 111/218/17
f 108/219/21 107/220/21 110/221/21 109/222/21
f 107/220/18 106/210/18 111/218/18 110/221/18
f 105/209/20 108/223/20 109/224/20 112/217/20
f 113/225/15 114/226/15 115/227/15 116/228/15
f 117/229/16 118/230/16 119/231/16 120/232/16
f 114/226/17 113/225/17 120/233/17 119/234/17
f 116/235/21 115/236/21 118/237/21 117/238/21
f 115/236/18 114/226/18 119/234/18 118/237/18
f 113/225/20 116/239/20 117/240/20 120/233/20
f 121/241/15 122/242/15 123/243/15 124/244/15
f 125/245/16 126/246/16 127/247/16 128/248/16
f 122/242/18 121/241/18 128/249/18 127/250/18
f 124/251/21 123/252/21 126/253/21 125/254/21
f 123/252/18 122/242/18 127/250/18 126/253/18
f 121/241/23 124/255/23 125/256/23 128/249/23
f 129/257/15 130/258/15 131/259/15 132/260/15
f 133/261/16 134/262/16 135/263/16 136/264/16
f 130/258/17 129/257/17 136/265/17 135/266/17
f 132/267/21 131/268/21 134/269/21 133/270/21
f 131/268/18 130/258/18 135/266/18 134/269/18
f 129/257/20 132/271/20 133/272/20 136/265/20
f 137/273/15 138/274/15 139/275/15 140/276/15
f 141/277/16 142/278/16 143/279/16 144/280/16
f 138/274/17 137/273/17 144/281/17 143/282/17
f 140/283/18 139/284/18 142/285/18 141/286/18
f 139/284/18 138/274/18 143/282/18 142/285/18
f 137/273/24 140/287/24 141/288/24 144/281/24
