# Blender v2.78 (sub 0) OBJ File: ''
# www.blender.org
mtllib ModelmgLandship.mtl
o Model[2]
v -0.031250 0.031250 0.000000
v -0.031250 0.031250 0.500000
v 0.031250 0.031250 0.500000
v 0.031250 0.031250 0.000000
v 0.031250 -0.031250 0.000000
v 0.031250 -0.031250 0.500000
v -0.031250 -0.031250 0.500000
v -0.031250 -0.031250 0.000000
vt 0.0625 0.8750
vt 0.3125 0.8750
vt 0.3125 0.9375
vt 0.0625 0.9375
vt 0.3125 0.8750
vt 0.5625 0.8750
vt 0.5625 0.9375
vt 0.3125 0.9375
vt 0.0625 0.8125
vt 0.3125 0.8125
vt 0.5938 0.8750
vt 0.3438 0.8750
vt 0.3438 0.8125
vt 0.5938 0.8125
vt 0.0312 0.8750
vt 0.0312 0.8125
vn -0.0000 1.0000 0.0000
vn 0.0000 -1.0000 -0.0000
vn -1.0000 0.0000 0.0000
vn 1.0000 0.0000 -0.0000
vn -0.0000 0.0000 1.0000
vn 0.0000 0.0000 -1.0000
usemtl ModelMaterial
s 1
f 1/1/1 2/2/1 3/3/1 4/4/1
f 5/5/2 6/6/2 7/7/2 8/8/2
f 2/2/3 1/1/3 8/9/3 7/10/3
f 4/11/4 3/12/4 6/13/4 5/14/4
f 3/12/5 2/2/5 7/10/5 6/13/5
f 1/1/6 4/15/6 5/16/6 8/9/6
