# Blender v2.79 (sub 0) OBJ File: ''
# www.blender.org
mtllib fmcsprinter.mtl
o group0
v 0.656250 0.062500 1.781250
v -0.656250 0.062500 1.781250
v -0.656250 -0.000000 1.781250
v 0.656250 -0.000000 1.781250
v -0.656250 0.062500 -0.093750
v 0.656250 0.062500 -0.093750
v 0.656250 0.000000 -0.093750
v -0.656250 0.000000 -0.093750
v 0.593750 0.937500 1.781250
v -0.593750 0.937500 1.781250
v -0.593750 0.062500 1.781250
v 0.593750 0.062500 1.781250
v -0.593750 0.937500 1.718750
v 0.593750 0.937500 1.718750
v 0.593750 0.062500 1.718750
v -0.593750 0.062500 1.718750
v 0.968750 0.031250 2.718750
v -0.968750 0.031250 2.718750
v -0.968750 -0.031250 2.718750
v 0.968750 -0.031250 2.718750
v -0.968750 0.031250 2.656250
v 0.968750 0.031250 2.656250
v 0.968750 -0.031250 2.656250
v -0.968750 -0.031250 2.656250
v 0.968750 0.031250 0.031250
v -0.968750 0.031250 0.031250
v -0.968750 -0.031250 0.031250
v 0.968750 -0.031250 0.031250
v -0.968750 0.031250 -0.031250
v 0.968750 0.031250 -0.031250
v 0.968750 -0.031250 -0.031250
v -0.968750 -0.031250 -0.031250
v 0.343750 0.499999 3.281250
v -0.343750 0.499999 3.281250
v -0.656250 -0.000001 3.281250
v 0.656250 -0.000001 3.281250
v -0.656250 0.937500 1.781250
v 0.656250 0.937500 1.781250
v -0.656250 0.937500 -0.093750
v -0.593750 0.937500 -0.093750
v -0.593750 0.062500 -0.093750
v 0.593750 0.937500 -0.093750
v 0.656250 0.937500 -0.093750
v 0.593750 0.062500 -0.093750
v 0.593750 0.937500 -0.031250
v -0.593750 0.937500 -0.031250
v -0.593750 0.062500 -0.031250
v 0.593750 0.062500 -0.031250
v -0.031250 0.937500 2.343750
v -0.156250 0.937500 2.343750
v -0.156250 0.750000 2.343750
v -0.031250 0.750000 2.343750
v -0.156250 0.937500 2.218750
v -0.031250 0.937500 2.218750
v -0.031250 0.750000 2.218750
v -0.156250 0.750000 2.218750
v 0.156250 0.937500 2.343750
v 0.031250 0.937500 2.343750
v 0.031250 0.750000 2.343750
v 0.156250 0.750000 2.343750
v 0.031250 0.937500 2.218750
v 0.156250 0.937500 2.218750
v 0.156250 0.750000 2.218750
v 0.031250 0.750000 2.218750
v 0.156250 0.937500 2.593750
v 0.031250 0.937500 2.593750
v 0.031250 0.687500 2.593750
v 0.156250 0.687500 2.593750
v 0.031250 0.937500 2.468750
v 0.156250 0.937500 2.468750
v 0.156250 0.687500 2.468750
v 0.031250 0.687500 2.468750
v -0.031250 0.937500 2.593750
v -0.156250 0.937500 2.593750
v -0.156250 0.687500 2.593750
v -0.031250 0.687500 2.593750
v -0.156250 0.937500 2.468750
v -0.031250 0.937500 2.468750
v -0.031250 0.687500 2.468750
v -0.156250 0.687500 2.468750
v 0.156250 0.937500 2.843750
v 0.031250 0.937500 2.843750
v 0.031250 0.625000 2.843750
v 0.156250 0.625000 2.843750
v 0.031250 0.937500 2.718750
v 0.156250 0.937500 2.718750
v 0.156250 0.625000 2.718750
v 0.031250 0.625000 2.718750
v -0.031250 0.937500 2.843750
v -0.156250 0.937500 2.843750
v -0.156250 0.625000 2.843750
v -0.031250 0.625000 2.843750
v -0.156250 0.937500 2.718750
v -0.031250 0.937500 2.718750
v -0.031250 0.625000 2.718750
v -0.156250 0.625000 2.718750
v -0.656250 0.312500 2.031250
v -0.718750 0.312500 2.031250
v -0.718750 0.187500 2.031250
v -0.656250 0.187500 2.031250
v -0.843750 0.312500 1.906250
v -0.656250 0.312500 1.906250
v -0.656250 0.187500 1.906250
v -0.843750 0.187500 1.906250
v -0.718750 0.312500 1.906250
v -0.718750 0.187500 1.906250
v -0.906250 0.375000 0.593750
v -0.718750 0.375000 0.593750
v -0.718750 0.250000 0.843750
v -0.906250 0.250000 0.843750
v -0.031250 1.062500 -1.031250
v 0.031250 1.062500 -1.031250
v 0.218750 0.000000 -0.593750
v -0.218750 0.000000 -0.593750
vt 0.071289 0.978516
vt 0.050781 0.978516
vt 0.050781 0.977539
vt 0.071289 0.977539
vt 0.021484 0.978516
vt 0.000977 0.978516
vt 0.000977 0.977539
vt 0.021484 0.977539
vt 0.050781 0.999023
vt 0.021484 0.999023
vt 0.080078 0.999023
vt 0.050781 0.999023
vt 0.050781 0.978516
vt 0.080078 0.978516
vt 0.100586 0.978516
vt 0.100586 0.977539
vt 0.140625 0.980469
vt 0.122070 0.980469
vt 0.122070 0.966797
vt 0.140625 0.966797
vt 0.121094 0.980469
vt 0.102539 0.980469
vt 0.102539 0.966797
vt 0.121094 0.966797
vt 0.122070 0.999023
vt 0.121094 0.999023
vt 0.123047 0.999023
vt 0.122070 0.999023
vt 0.122070 0.980469
vt 0.123047 0.980469
vt 0.141602 0.980469
vt 0.141602 0.966797
vt 0.523438 0.968750
vt 0.493164 0.968750
vt 0.493164 0.967773
vt 0.523438 0.967773
vt 0.492188 0.968750
vt 0.461914 0.968750
vt 0.461914 0.967773
vt 0.492188 0.967773
vt 0.493164 0.999023
vt 0.492188 0.999023
vt 0.494141 0.999023
vt 0.493164 0.999023
vt 0.493164 0.968750
vt 0.494141 0.968750
vt 0.524414 0.968750
vt 0.524414 0.967773
vt 0.593750 0.968750
vt 0.563477 0.968750
vt 0.563477 0.967773
vt 0.593750 0.967773
vt 0.562500 0.968750
vt 0.532227 0.968750
vt 0.532227 0.967773
vt 0.562500 0.967773
vt 0.563477 0.999023
vt 0.562500 0.999023
vt 0.564453 0.999023
vt 0.563477 0.999023
vt 0.563477 0.968750
vt 0.564453 0.968750
vt 0.594727 0.968750
vt 0.594727 0.967773
vt 0.666992 0.978516
vt 0.646484 0.978516
vt 0.646484 0.963867
vt 0.666992 0.963867
vt 0.623047 0.978516
vt 0.602539 0.978516
vt 0.602539 0.963867
vt 0.623047 0.963867
vt 0.646484 0.999023
vt 0.623047 0.999023
vt 0.669922 0.999023
vt 0.646484 0.999023
vt 0.646484 0.978516
vt 0.669922 0.978516
vt 0.690430 0.978516
vt 0.690430 0.963867
vt 0.532227 0.998047
vt 0.531250 0.998047
vt 0.531250 0.984375
vt 0.532227 0.984375
vt 0.501953 0.998047
vt 0.500977 0.998047
vt 0.500977 0.984375
vt 0.501953 0.984375
vt 0.531250 0.999023
vt 0.501953 0.999023
vt 0.560547 0.999023
vt 0.531250 0.999023
vt 0.531250 0.998047
vt 0.560547 0.998047
vt 0.561523 0.998047
vt 0.561523 0.984375
vt 0.704102 0.998047
vt 0.703125 0.998047
vt 0.703125 0.984375
vt 0.704102 0.984375
vt 0.673828 0.998047
vt 0.672852 0.998047
vt 0.672852 0.984375
vt 0.673828 0.984375
vt 0.703125 0.999023
vt 0.673828 0.999023
vt 0.732422 0.999023
vt 0.703125 0.999023
vt 0.703125 0.998047
vt 0.732422 0.998047
vt 0.733398 0.998047
vt 0.733398 0.984375
vt 0.203125 0.980469
vt 0.184570 0.980469
vt 0.184570 0.966797
vt 0.203125 0.966797
vt 0.183594 0.980469
vt 0.165039 0.980469
vt 0.165039 0.966797
vt 0.183594 0.966797
vt 0.184570 0.999023
vt 0.183594 0.999023
vt 0.185547 0.999023
vt 0.184570 0.999023
vt 0.184570 0.980469
vt 0.185547 0.980469
vt 0.204102 0.980469
vt 0.204102 0.966797
vt 0.577148 0.997070
vt 0.575195 0.997070
vt 0.575195 0.994141
vt 0.577148 0.994141
vt 0.573242 0.997070
vt 0.571289 0.997070
vt 0.571289 0.994141
vt 0.573242 0.994141
vt 0.575195 0.999023
vt 0.573242 0.999023
vt 0.577148 0.999023
vt 0.575195 0.999023
vt 0.575195 0.997070
vt 0.577148 0.997070
vt 0.579102 0.997070
vt 0.579102 0.994141
vt 0.592773 0.997070
vt 0.590820 0.997070
vt 0.590820 0.994141
vt 0.592773 0.994141
vt 0.588867 0.997070
vt 0.586914 0.997070
vt 0.586914 0.994141
vt 0.588867 0.994141
vt 0.590820 0.999023
vt 0.588867 0.999023
vt 0.592773 0.999023
vt 0.590820 0.999023
vt 0.590820 0.997070
vt 0.592773 0.997070
vt 0.594727 0.997070
vt 0.594727 0.994141
vt 0.608398 0.997070
vt 0.606445 0.997070
vt 0.606445 0.993164
vt 0.608398 0.993164
vt 0.604492 0.997070
vt 0.602539 0.997070
vt 0.602539 0.993164
vt 0.604492 0.993164
vt 0.606445 0.999023
vt 0.604492 0.999023
vt 0.608398 0.999023
vt 0.606445 0.999023
vt 0.606445 0.997070
vt 0.608398 0.997070
vt 0.610352 0.997070
vt 0.610352 0.993164
vt 0.741211 0.997070
vt 0.739258 0.997070
vt 0.739258 0.993164
vt 0.741211 0.993164
vt 0.737305 0.997070
vt 0.735352 0.997070
vt 0.735352 0.993164
vt 0.737305 0.993164
vt 0.739258 0.999023
vt 0.737305 0.999023
vt 0.741211 0.999023
vt 0.739258 0.999023
vt 0.739258 0.997070
vt 0.741211 0.997070
vt 0.743164 0.997070
vt 0.743164 0.993164
vt 0.756836 0.997070
vt 0.754883 0.997070
vt 0.754883 0.992188
vt 0.756836 0.992188
vt 0.752930 0.997070
vt 0.750977 0.997070
vt 0.750977 0.992188
vt 0.752930 0.992188
vt 0.754883 0.999023
vt 0.752930 0.999023
vt 0.756836 0.999023
vt 0.754883 0.999023
vt 0.754883 0.997070
vt 0.756836 0.997070
vt 0.758789 0.997070
vt 0.758789 0.992188
vt 0.772461 0.997070
vt 0.770508 0.997070
vt 0.770508 0.992188
vt 0.772461 0.992188
vt 0.768555 0.997070
vt 0.766602 0.997070
vt 0.766602 0.992188
vt 0.768555 0.992188
vt 0.770508 0.999023
vt 0.768555 0.999023
vt 0.772461 0.999023
vt 0.770508 0.999023
vt 0.770508 0.997070
vt 0.772461 0.997070
vt 0.774414 0.997070
vt 0.774414 0.992188
vt 0.790039 0.996094
vt 0.787109 0.996094
vt 0.787109 0.994141
vt 0.790039 0.994141
vt 0.785156 0.996094
vt 0.782227 0.996094
vt 0.782227 0.994141
vt 0.785156 0.994141
vt 0.787109 0.999023
vt 0.785156 0.999023
vt 0.789062 0.999023
vt 0.787109 0.999023
vt 0.787109 0.996094
vt 0.789062 0.996094
vt 0.791992 0.996094
vt 0.791992 0.994141
vt 0.821289 0.997070
vt 0.819336 0.997070
vt 0.819336 0.995117
vt 0.821289 0.995117
vt 0.799805 0.997070
vt 0.797852 0.997070
vt 0.797852 0.995117
vt 0.799805 0.995117
vt 0.819336 0.999023
vt 0.799805 0.999023
vt 0.838867 0.999023
vt 0.819336 0.999023
vt 0.819336 0.997070
vt 0.838867 0.997070
vt 0.840820 0.997070
vt 0.840820 0.995117
vt 0.876953 0.978516
vt 0.856445 0.978516
vt 0.856445 0.963867
vt 0.876953 0.963867
vt 0.841797 0.978516
vt 0.821289 0.978516
vt 0.821289 0.963867
vt 0.841797 0.963867
vt 0.856445 0.999023
vt 0.841797 0.999023
vt 0.871094 0.999023
vt 0.856445 0.999023
vt 0.856445 0.978516
vt 0.871094 0.978516
vt 0.891602 0.978516
vt 0.891602 0.963867
vn 0.0000 0.0000 1.0000
vn 0.0000 0.0000 -1.0000
vn 0.0000 1.0000 0.0000
vn 0.0000 -1.0000 -0.0000
vn -1.0000 0.0000 0.0000
vn 1.0000 0.0000 0.0000
vn 0.0000 0.9600 0.2800
vn -0.9687 0.2106 0.1316
vn 0.9687 0.2106 0.1316
vn -0.7071 0.0000 0.7071
vn 0.0000 -0.8944 -0.4472
vn 0.0000 0.9989 0.0476
vn 0.0000 -0.9983 -0.0587
vn -0.9969 0.0554 0.0554
vn 0.0000 -0.3807 -0.9247
vn 0.0000 0.9912 0.1322
vn -0.8006 -0.0554 -0.5966
vn 0.8006 -0.0554 -0.5966
usemtl None
s 1
f 1/1/1 2/2/1 3/3/1 4/4/1
f 5/5/2 6/6/2 7/7/2 8/8/2
f 1/9/3 6/10/3 5/5/3 2/2/3
f 3/11/4 8/12/4 7/13/4 4/14/4
f 2/2/5 5/5/5 8/8/5 3/3/5
f 6/15/6 1/1/6 4/4/6 7/16/6
f 9/17/1 10/18/1 11/19/1 12/20/1
f 13/21/2 14/22/2 15/23/2 16/24/2
f 9/25/3 14/26/3 13/21/3 10/18/3
f 11/27/4 16/28/4 15/29/4 12/30/4
f 10/18/5 13/21/5 16/24/5 11/19/5
f 14/31/6 9/17/6 12/20/6 15/32/6
f 17/33/1 18/34/1 19/35/1 20/36/1
f 21/37/2 22/38/2 23/39/2 24/40/2
f 17/41/3 22/42/3 21/37/3 18/34/3
f 19/43/4 24/44/4 23/45/4 20/46/4
f 18/34/5 21/37/5 24/40/5 19/35/5
f 22/47/6 17/33/6 20/36/6 23/48/6
f 25/49/1 26/50/1 27/51/1 28/52/1
f 29/53/2 30/54/2 31/55/2 32/56/2
f 25/57/3 30/58/3 29/53/3 26/50/3
f 27/59/4 32/60/4 31/61/4 28/62/4
f 26/50/5 29/53/5 32/56/5 27/51/5
f 30/63/6 25/49/6 28/52/6 31/64/6
f 33/65/1 34/66/1 35/67/1 36/68/1
f 37/69/2 38/70/2 4/71/2 3/72/2
f 33/73/7 38/74/7 37/69/7 34/66/7
f 35/75/4 3/76/4 4/77/4 36/78/4
f 34/66/8 37/69/8 3/72/8 35/67/8
f 38/79/9 33/65/9 36/68/9 4/80/9
f 10/81/1 37/82/1 2/83/1 11/84/1
f 39/85/2 40/86/2 41/87/2 5/88/2
f 10/89/3 40/90/3 39/85/3 37/82/3
f 2/91/4 5/92/4 41/93/4 11/94/4
f 37/82/5 39/85/5 5/88/5 2/83/5
f 40/95/6 10/81/6 11/84/6 41/96/6
f 38/97/1 9/98/1 12/99/1 1/100/1
f 42/101/2 43/102/2 6/103/2 44/104/2
f 38/105/3 43/106/3 42/101/3 9/98/3
f 12/107/4 44/108/4 6/109/4 1/110/4
f 9/98/5 42/101/5 44/104/5 12/99/5
f 43/111/6 38/97/6 1/100/6 6/112/6
f 45/113/1 46/114/1 47/115/1 48/116/1
f 40/117/2 42/118/2 44/119/2 41/120/2
f 45/121/3 42/122/3 40/117/3 46/114/3
f 47/123/4 41/124/4 44/125/4 48/126/4
f 46/114/5 40/117/5 41/120/5 47/115/5
f 42/127/6 45/113/6 48/116/6 44/128/6
f 49/129/1 50/130/1 51/131/1 52/132/1
f 53/133/2 54/134/2 55/135/2 56/136/2
f 49/137/3 54/138/3 53/133/3 50/130/3
f 51/139/4 56/140/4 55/141/4 52/142/4
f 50/130/5 53/133/5 56/136/5 51/131/5
f 54/143/6 49/129/6 52/132/6 55/144/6
f 57/145/1 58/146/1 59/147/1 60/148/1
f 61/149/2 62/150/2 63/151/2 64/152/2
f 57/153/3 62/154/3 61/149/3 58/146/3
f 59/155/4 64/156/4 63/157/4 60/158/4
f 58/146/5 61/149/5 64/152/5 59/147/5
f 62/159/6 57/145/6 60/148/6 63/160/6
f 65/161/1 66/162/1 67/163/1 68/164/1
f 69/165/2 70/166/2 71/167/2 72/168/2
f 65/169/3 70/170/3 69/165/3 66/162/3
f 67/171/4 72/172/4 71/173/4 68/174/4
f 66/162/5 69/165/5 72/168/5 67/163/5
f 70/175/6 65/161/6 68/164/6 71/176/6
f 73/177/1 74/178/1 75/179/1 76/180/1
f 77/181/2 78/182/2 79/183/2 80/184/2
f 73/185/3 78/186/3 77/181/3 74/178/3
f 75/187/4 80/188/4 79/189/4 76/190/4
f 74/178/5 77/181/5 80/184/5 75/179/5
f 78/191/6 73/177/6 76/180/6 79/192/6
f 81/193/1 82/194/1 83/195/1 84/196/1
f 85/197/2 86/198/2 87/199/2 88/200/2
f 81/201/3 86/202/3 85/197/3 82/194/3
f 83/203/4 88/204/4 87/205/4 84/206/4
f 82/194/5 85/197/5 88/200/5 83/195/5
f 86/207/6 81/193/6 84/196/6 87/208/6
f 89/209/1 90/210/1 91/211/1 92/212/1
f 93/213/2 94/214/2 95/215/2 96/216/2
f 89/217/3 94/218/3 93/213/3 90/210/3
f 91/219/4 96/220/4 95/221/4 92/222/4
f 90/210/5 93/213/5 96/216/5 91/211/5
f 94/223/6 89/209/6 92/212/6 95/224/6
f 97/225/1 98/226/1 99/227/1 100/228/1
f 101/229/2 102/230/2 103/231/2 104/232/2
f 97/233/3 102/234/3 101/229/3 98/226/3
f 99/235/4 104/236/4 103/237/4 100/238/4
f 98/226/10 101/229/10 104/232/10 99/227/10
f 102/239/6 97/225/6 100/228/6 103/240/6
f 105/241/1 101/242/1 104/243/1 106/244/1
f 107/245/11 108/246/11 109/247/11 110/248/11
f 105/249/12 108/250/12 107/245/12 101/242/12
f 104/251/13 110/252/13 109/253/13 106/254/13
f 101/242/14 107/245/14 110/248/14 104/243/14
f 108/255/6 105/241/6 106/244/6 109/256/6
f 43/257/1 39/258/1 8/259/1 7/260/1
f 111/261/15 112/262/15 113/263/15 114/264/15
f 43/265/16 112/266/16 111/261/16 39/258/16
f 8/267/4 114/268/4 113/269/4 7/270/4
f 39/258/17 111/261/17 114/264/17 8/259/17
f 112/271/18 43/257/18 7/260/18 113/272/18
o Gearshift
v -0.281250 0.840874 1.024438
v -0.343750 0.840874 1.024438
v -0.343750 0.061244 1.421680
v -0.281250 0.061244 1.421680
v -0.343750 0.812500 0.968750
v -0.281250 0.812500 0.968750
v -0.281250 0.032869 1.365992
v -0.343750 0.032869 1.365992
vt 0.019531 0.998047
vt 0.018555 0.998047
vt 0.018555 0.984375
vt 0.019531 0.984375
vt 0.017578 0.998047
vt 0.016602 0.998047
vt 0.016602 0.984375
vt 0.017578 0.984375
vt 0.018555 0.999023
vt 0.017578 0.999023
vt 0.019531 0.999023
vt 0.018555 0.999023
vt 0.018555 0.998047
vt 0.019531 0.998047
vt 0.020508 0.998047
vt 0.020508 0.984375
vn 0.0000 0.4540 0.8910
vn 0.0000 -0.4540 -0.8910
vn 0.0000 0.8910 -0.4540
vn 0.0000 -0.8910 0.4540
vn -1.0000 -0.0000 0.0000
vn 1.0000 0.0000 0.0000
usemtl None
s 1
f 115/273/19 116/274/19 117/275/19 118/276/19
f 119/277/20 120/278/20 121/279/20 122/280/20
f 115/281/21 120/282/21 119/277/21 116/274/21
f 117/283/22 122/284/22 121/285/22 118/286/22
f 116/274/23 119/277/23 122/280/23 117/275/23
f 120/287/24 115/273/24 118/276/24 121/288/24
o SteeringWheel
v 0.093750 0.812500 1.718750
v 0.031250 0.812500 1.718750
v 0.031250 0.750000 1.718750
v 0.093750 0.750000 1.718750
v 0.031250 0.812500 1.406250
v 0.093750 0.812500 1.406250
v 0.093750 0.750000 1.406250
v 0.031250 0.750000 1.406250
v 0.281250 1.000000 1.406250
v -0.156250 1.000000 1.406250
v -0.156250 0.562500 1.406250
v 0.281250 0.562500 1.406250
v -0.156250 1.000000 1.343750
v 0.281250 1.000000 1.343750
v 0.281250 0.562500 1.343750
v -0.156250 0.562500 1.343750
vt 0.007812 0.998047
vt 0.006836 0.998047
vt 0.006836 0.997070
vt 0.007812 0.997070
vt 0.001953 0.998047
vt 0.000977 0.998047
vt 0.000977 0.997070
vt 0.001953 0.997070
vt 0.006836 0.999023
vt 0.001953 0.999023
vt 0.011719 0.999023
vt 0.006836 0.999023
vt 0.006836 0.998047
vt 0.011719 0.998047
vt 0.012695 0.998047
vt 0.012695 0.997070
vt 0.484375 0.992188
vt 0.477539 0.992188
vt 0.477539 0.985352
vt 0.484375 0.985352
vt 0.476562 0.992188
vt 0.469727 0.992188
vt 0.469727 0.985352
vt 0.476562 0.985352
vt 0.477539 0.999023
vt 0.476562 0.999023
vt 0.478516 0.999023
vt 0.477539 0.999023
vt 0.477539 0.992188
vt 0.478516 0.992188
vt 0.485352 0.992188
vt 0.485352 0.985352
vn 0.0000 0.0000 1.0000
vn 0.0000 0.0000 -1.0000
vn 0.0000 1.0000 0.0000
vn 0.0000 -1.0000 -0.0000
vn -1.0000 0.0000 0.0000
vn 1.0000 0.0000 0.0000
usemtl None
s 1
f 123/289/25 124/290/25 125/291/25 126/292/25
f 127/293/26 128/294/26 129/295/26 130/296/26
f 123/297/27 128/298/27 127/293/27 124/290/27
f 125/299/28 130/300/28 129/301/28 126/302/28
f 124/290/29 127/293/29 130/296/29 125/291/29
f 128/303/30 123/289/30 126/292/30 129/304/30
f 131/305/25 132/306/25 133/307/25 134/308/25
f 135/309/26 136/310/26 137/311/26 138/312/26
f 131/313/27 136/314/27 135/309/27 132/306/27
f 133/315/28 138/316/28 137/317/28 134/318/28
f 132/306/29 135/309/29 138/312/29 133/307/29
f 136/319/30 131/305/30 134/308/30 137/320/30
